<?xml version="1.0" standalone="no"?><!DOCTYPE svg PUBLIC "-//W3C//DTD SVG 1.1//EN" "http://www.w3.org/Graphics/SVG/1.1/DTD/svg11.dtd"><svg t="1587267227020" class="icon" viewBox="0 0 1024 1024" version="1.1" xmlns="http://www.w3.org/2000/svg" p-id="5471" xmlns:xlink="http://www.w3.org/1999/xlink" width="200" height="200"><defs><style type="text/css"></style></defs><path d="M128 288C128 270.336 142.336 256 160 256l704 0C881.6 256 896 270.336 896 288l0 0C896 305.664 881.6 320 864 320l-704 0C142.336 320 128 305.664 128 288L128 288zM128 480C128 497.664 142.336 512 160 512l704 0C881.6 512 896 497.664 896 480l0 0C896 462.336 881.6 448 864 448l-704 0C142.336 448 128 462.336 128 480L128 480zM128 672C128 689.6 142.336 704 160 704l704 0c17.6 0 32-14.4 32-32l0 0c0-17.6-14.4-32-32-32l-704 0C142.336 640 128 654.4 128 672L128 672z" p-id="5472"></path></svg>