<?xml version="1.0" standalone="no"?><!DOCTYPE svg PUBLIC "-//W3C//DTD SVG 1.1//EN" "http://www.w3.org/Graphics/SVG/1.1/DTD/svg11.dtd"><svg t="1587267241610" class="icon" viewBox="0 0 1024 1024" version="1.1" xmlns="http://www.w3.org/2000/svg" p-id="5609" xmlns:xlink="http://www.w3.org/1999/xlink" width="200" height="200"><defs><style type="text/css"></style></defs><path d="M896 224C896 241.664 881.664 256 864 256l-704 0C142.336 256 128 241.664 128 224l0 0C128 206.336 142.336 192 160 192l704 0C881.664 192 896 206.336 896 224L896 224zM896 416C896 398.336 881.664 384 864 384l-704 0C142.336 384 128 398.336 128 416l0 0C128 433.664 142.336 448 160 448l704 0C881.664 448 896 433.664 896 416L896 416zM896 608C896 590.336 881.664 576 864 576l-704 0C142.336 576 128 590.336 128 608l0 0C128 625.664 142.336 640 160 640l704 0C881.664 640 896 625.664 896 608L896 608zM896 800c0-17.664-14.336-32-32-32l-704 0C142.336 768 128 782.336 128 800l0 0C128 817.664 142.336 832 160 832l704 0C881.664 832 896 817.664 896 800L896 800z" p-id="5610"></path></svg>