<?xml version="1.0" standalone="no"?><!DOCTYPE svg PUBLIC "-//W3C//DTD SVG 1.1//EN" "http://www.w3.org/Graphics/SVG/1.1/DTD/svg11.dtd"><svg t="1584699011055" class="icon" viewBox="0 0 1024 1024" version="1.1" xmlns="http://www.w3.org/2000/svg" p-id="10575" xmlns:xlink="http://www.w3.org/1999/xlink" width="200" height="200"><defs><style type="text/css"></style></defs><path d="M992 512.096c0-5.76-0.992-10.592-1.28-11.136a54.272 54.272 0 0 0-2.08-10.816l-0.832-2.08a33.28 33.28 0 0 0-1.6-4.32C897.664 290.112 707.104 160 512 160 316.928 160 126.368 290.016 38.24 482.592a32.032 32.032 0 0 0-2.272 5.856 55.52 55.52 0 0 0-0.64 1.6c-1.76 5.088-1.792 8.64-1.632 7.744a130.784 130.784 0 0 0-1.568 11.168 27.68 27.68 0 0 0 0.032 6.304s0.736 6.464 1.088 7.808c0.128 1.824 0.576 4.512 1.12 6.976h-0.032c0.448 2.08 1.12 4.096 1.984 6.08 0.48 1.536 0.992 2.976 1.472 4.032C126.432 733.856 316.992 864 512 864c195.136 0 385.696-130.048 473.216-321.696 1.376-2.496 2.24-4.832 2.848-6.912a31.392 31.392 0 0 0 2.4-10.048l-0.032 0.032c0.608-3.104 1.568-7.744 1.568-13.28zM512 672c-88.224 0-160-71.776-160-160s71.776-160 160-160 160 71.776 160 160-71.776 160-160 160z" p-id="10576"></path></svg>