<?xml version="1.0" standalone="no"?><!DOCTYPE svg PUBLIC "-//W3C//DTD SVG 1.1//EN" "http://www.w3.org/Graphics/SVG/1.1/DTD/svg11.dtd"><svg t="1585054172929" class="icon" viewBox="0 0 1024 1024" version="1.1" xmlns="http://www.w3.org/2000/svg" p-id="3254" xmlns:xlink="http://www.w3.org/1999/xlink" width="200" height="200"><defs><style type="text/css"></style></defs><path d="M512 39.384615C252.061538 39.384615 39.384615 252.061538 39.384615 512s212.676923 472.615385 472.615385 472.615385 472.615385-212.676923 472.615385-472.615385S771.938462 39.384615 512 39.384615z m234.338462 506.092308c-1.969231 13.784615-13.784615 25.6-29.538462 25.6H307.2c-15.753846 0-27.569231-9.846154-29.538462-25.6-1.969231-23.630769-1.969231-45.292308 0-66.953846 1.969231-13.784615 13.784615-25.6 29.538462-25.6h409.6c15.753846 0 27.569231 11.815385 29.538462 25.6 1.969231 23.630769 1.969231 45.292308 0 66.953846z" p-id="3255"></path></svg>