<?xml version="1.0" standalone="no"?><!DOCTYPE svg PUBLIC "-//W3C//DTD SVG 1.1//EN" "http://www.w3.org/Graphics/SVG/1.1/DTD/svg11.dtd"><svg t="1585921815348" class="icon" viewBox="0 0 1084 1024" version="1.1" xmlns="http://www.w3.org/2000/svg" p-id="1814" xmlns:xlink="http://www.w3.org/1999/xlink" width="211.71875" height="200"><defs><style type="text/css"></style></defs><path d="M1082.902 461.19l1.776 1.406q-0.876-0.74-1.776-1.406zM0 463.213l3.207-2.541c-3.851 2.679-6.993 6.102-9.273 10.083z" p-id="1815"></path><path d="M112.809 996.862c-0.284 1.9-0.58 3.787-0.839 5.699 0.534-2.027 0.849-4.358 0.866-6.759zM84.375 1024zM55.979 993.42q0.308-2.134 0.641-4.268c-0.433 1.807-0.692 3.888-0.715 6.025z" p-id="1816"></path><path d="M1029.465 986.796c0.358 2.233 0.678 4.478 0.999 6.723-0.088-2.696-0.525-5.255-1.267-7.681zM972.388 1001.463c-0.247-1.764-0.506-3.516-0.777-5.267 0.138 2.411 0.544 4.67 1.191 6.826z" p-id="1817"></path><path d="M542.127 8c-277.027 0-502.434 225.407-502.434 502.434s225.371 502.434 502.434 502.434 502.434-225.371 502.434-502.434-225.371-502.434-502.434-502.434zM784.582 427.558l-288.598 291.731c-0.223 0.13-0.406 0.309-0.535 0.524 0.135-0.232 0.135-0.087 0.026-0.014-4.519 3.886-10.065 6.708-16.175 8.006 4.896-0.287 0.769 1.622-3.716 2.559 4.234-1.349-0.426-0.381-5.311-0.377-4.843-0.003-9.531-1-13.795-2.803-5.535-3.328-10.364-7.74-14.155-12.956 4.965 7.769 0.452 3.883-2.896-0.879 5.511 6.135 5.474 5.989 5.401 5.916s-0.219-0.109-0.291-0.219l-141.986-145.823c-6.62-6.539-10.72-15.617-10.72-25.652 0-19.911 16.141-36.052 36.052-36.052 10.394 0 19.761 4.399 26.341 11.436l116.347 119.554 262.783-265.648c6.546-6.666 15.654-10.798 25.727-10.798 19.908 0 36.046 16.138 36.046 36.046 0 9.946-4.028 18.951-10.543 25.473z" p-id="1818"></path></svg>