<?xml version="1.0" standalone="no"?><!DOCTYPE svg PUBLIC "-//W3C//DTD SVG 1.1//EN" "http://www.w3.org/Graphics/SVG/1.1/DTD/svg11.dtd"><svg t="1585921790550" class="icon" viewBox="0 0 1084 1024" version="1.1" xmlns="http://www.w3.org/2000/svg" p-id="1673" xmlns:xlink="http://www.w3.org/1999/xlink" width="211.71875" height="200"><defs><style type="text/css"></style></defs><path d="M1073.879 462.037l1.748 1.384q-0.862-0.728-1.748-1.384zM8 464.028l3.157-2.501c-3.79 2.636-6.883 6.007-9.127 9.924z" p-id="1674"></path><path d="M119.036 989.288c-0.28 1.869-0.571 3.728-0.826 5.609 0.526-1.995 0.836-4.289 0.852-6.653zM91.049 1016zM63.098 985.901q0.303-2.101 0.631-4.201c-0.426 1.779-0.681 3.826-0.704 5.931z" p-id="1675"></path><path d="M1021.281 979.381c0.352 2.198 0.667 4.407 0.983 6.617-0.087-2.653-0.517-5.173-1.247-7.561zM965.102 993.817c-0.243-1.736-0.498-3.46-0.765-5.185 0.136 2.373 0.535 4.597 1.172 6.718z" p-id="1676"></path><path d="M542.075 8c-277.048 0-502.482 225.397-502.482 502.482s225.397 502.482 502.482 502.482 502.482-225.397 502.482-502.482-225.397-502.482-502.482-502.482zM747.050 665.252c7.002 6.566 11.364 15.875 11.364 26.203 0 19.822-16.069 35.89-35.89 35.89-10.352 0-19.68-4.382-26.231-11.393l-154.4-154.826-154.83 153.191c-6.558 6.929-15.819 11.241-26.087 11.241-19.822 0-35.89-16.069-35.89-35.89 0-10.401 4.425-19.769 11.494-26.324l154.684-153.006-154.090-154.624c-6.263-6.454-10.123-15.268-10.123-24.983 0-19.822 16.069-35.89 35.89-35.89 9.752 0 18.596 3.889 25.064 10.202l154.289 154.762 154.83-153.18c6.38-5.916 14.953-9.545 24.374-9.545 19.822 0 35.89 16.069 35.89 35.89 0 9.553-3.733 18.236-9.819 24.666l-154.633 152.968 154.114 154.648z" p-id="1677"></path></svg>