<?xml version="1.0" standalone="no"?><!DOCTYPE svg PUBLIC "-//W3C//DTD SVG 1.1//EN" "http://www.w3.org/Graphics/SVG/1.1/DTD/svg11.dtd"><svg t="1585035932859" class="icon" viewBox="0 0 1024 1024" version="1.1" xmlns="http://www.w3.org/2000/svg" p-id="7249" xmlns:xlink="http://www.w3.org/1999/xlink" width="200" height="200"><defs><style type="text/css"></style></defs><path d="M384 620.032c0 5.376-1.984 10.048-5.952 14.08C374.08 638.08 369.344 640 364.032 640L83.968 640c-5.376 0-10.112-1.92-14.08-5.952C65.92 630.08 64 625.344 64 620.032s1.92-10.048 5.952-14.08L209.92 465.984C213.888 462.016 218.624 460.032 224 460.032s10.048 1.984 14.08 6.016l140.032 139.968C382.016 609.92 384 614.656 384 620.032zM960 352C960 369.664 945.664 384 928 384l-448 0C462.336 384 448 369.664 448 352l0 0C448 334.336 462.336 320 480 320l448 0C945.664 320 960 334.336 960 352L960 352zM960 480C960 497.664 945.664 512 928 512l-448 0C462.336 512 448 497.664 448 480l0 0C448 462.336 462.336 448 480 448l448 0C945.664 448 960 462.336 960 480L960 480zM960 608c0 17.6-14.336 32-32 32l-448 0C462.336 640 448 625.6 448 608l0 0C448 590.272 462.336 576 480 576l448 0C945.664 576 960 590.272 960 608L960 608zM960 736c0 17.6-14.336 32-32 32l-448 0C462.336 768 448 753.6 448 736l0 0C448 718.272 462.336 704 480 704l448 0C945.664 704 960 718.272 960 736L960 736z" p-id="7250"></path></svg>