<?xml version="1.0" standalone="no"?><!DOCTYPE svg PUBLIC "-//W3C//DTD SVG 1.1//EN" "http://www.w3.org/Graphics/SVG/1.1/DTD/svg11.dtd"><svg t="1586967260502" class="icon" viewBox="0 0 1024 1024" version="1.1" xmlns="http://www.w3.org/2000/svg" p-id="3605" xmlns:xlink="http://www.w3.org/1999/xlink" width="200" height="200"><defs><style type="text/css"></style></defs><path d="M533.504 2.56h29.696c-16.896-1.536-34.304-2.56-51.2-2.56s-34.304 1.024-51.2 2.56h72.704z" fill="#FFFFFF" p-id="3606"></path><path d="M446.976 1019.904c21.504 2.56 43.008 4.096 65.024 4.096s43.52-1.536 65.024-4.096H446.976z" fill="#C22045" p-id="3607"></path><path d="M78.848 784.896h866.304c15.36-24.576 29.184-50.688 40.448-77.824H38.4c11.264 27.136 24.576 53.248 40.448 77.824z" fill="#FFFFFF" p-id="3608"></path><path d="M38.4 707.072h947.2c10.24-25.088 18.944-51.2 25.088-77.824H13.312c6.656 26.624 14.848 52.736 25.088 77.824z" fill="#C22045" p-id="3609"></path><path d="M233.984 942.08h555.52c34.304-22.016 65.536-48.128 93.696-77.824H140.288c28.16 29.696 59.392 55.808 93.696 77.824z" fill="#FFFFFF" p-id="3610"></path><path d="M233.984 942.08c58.88 38.4 125.952 64.512 198.656 75.776h158.72c72.192-11.264 139.264-37.376 198.656-75.776H233.984zM140.288 864.256h742.912c22.528-24.064 43.008-50.176 60.928-77.824H79.872c17.408 27.648 37.888 53.76 60.416 77.824zM432.64 1017.856c4.608 0.512 9.728 1.536 14.336 2.048h130.048c4.608-0.512 9.728-1.536 14.336-2.048h-158.72z" fill="#C22045" p-id="3611"></path><path d="M1.536 550.912c2.048 26.624 6.144 52.736 11.776 77.824h997.376c6.144-25.088 9.728-51.2 11.776-77.824H1.536z" fill="#FFFFFF" p-id="3612"></path><path d="M533.504 393.728h476.672c-6.144-26.624-14.848-52.736-25.088-77.824h-451.584v77.824z" fill="#C22045" p-id="3613"></path><path d="M787.456 80.384h-253.952V158.72h349.184c-28.672-29.696-60.416-56.32-95.232-78.336z" fill="#FFFFFF" p-id="3614"></path><path d="M533.504 236.544h410.112c-17.92-27.648-38.4-53.76-60.928-77.824h-349.184v77.824zM533.504 549.376h488.96c1.024-12.288 1.536-24.576 1.536-37.376 0-13.824-0.512-27.136-1.536-40.448h-488.96v77.824zM787.456 80.384c-58.368-37.376-124.928-62.976-196.096-74.24h-57.856v74.24h253.952z" fill="#C22045" p-id="3615"></path><path d="M533.504 6.144h57.856c-9.216-1.536-18.432-2.56-28.16-3.584h-29.696v3.584z" fill="#C22045" p-id="3616"></path><path d="M533.504 471.552h488.96c-2.048-26.624-6.144-52.736-12.288-77.824h-476.672v77.824zM533.504 315.392h451.584c-11.264-27.136-25.088-53.248-40.448-77.824h-410.624v77.824z" fill="#FFFFFF" p-id="3617"></path><path d="M423.424 237.568v-1.024H340.992v1.024zM428.544 236.544l-1.536 1.024h12.8l-1.536-1.024zM442.88 237.568h90.624v-1.024H442.88zM321.024 236.544H240.64v0.512l-0.512-0.512h-20.992l-0.512 0.512v-0.512h-138.24c0 0.512-0.512 0.512-0.512 1.024h241.152v-1.024zM38.912 315.904h494.592v-0.512H38.912v0.512zM325.632 236.544l-1.536 1.024h13.312l-1.536-1.024zM533.504 549.376H1.536v1.536h531.968v-1.536zM30.208 337.92c0.512-1.024 1.024-2.56 1.536-3.584l-2.048 1.536 0.512 2.048z" fill="#004981" p-id="3618"></path><path d="M34.304 327.168H40.96l-9.216 7.168c-0.512 1.024-1.024 2.56-1.536 3.584l3.072 10.752-5.12-4.096c-5.632 15.872-10.24 32.256-14.336 49.152h48.128l-5.632-3.584h13.824c0.512 0 4.096-13.824 4.608-13.824l5.12 13.824h12.8l-4.608 3.584H163.84l-5.12-3.584h13.824l5.632-13.824 3.584 13.824h13.824l-5.12 3.584h77.312l-4.608-3.584h12.8l4.608-13.824 3.584 13.824h14.336l-5.12 3.584h76.8l-5.12-3.584H378.88l3.584-13.824 3.584 13.824h13.824l-5.12 3.584h77.312l-5.12-3.584h13.824l4.096-13.824 5.12 13.824H501.76l-5.12 3.584h36.864V315.904H38.912c-1.536 3.584-3.072 7.68-4.608 11.264z m393.728 7.68l5.12-12.8 3.584 12.8H450.56l-11.264 8.704 5.12 12.8-11.264-7.68-11.264 7.68 3.584-12.8-11.264-8.704h13.824z m-102.912 0c0.512 0 4.608-12.8 4.096-12.8l5.12 12.8H348.16l-11.264 8.704 3.584 12.8-11.264-7.68-10.24 7.68 3.584-12.8-11.264-8.704h13.824z m-101.376-4.096l3.584-12.288 5.12 12.8h12.8l-10.24 7.68 3.584 13.824-11.264-8.704-11.264 8.704 5.12-13.824-11.264-8.192h13.824z m-97.792-13.824l3.584 12.8h14.336l-11.264 7.68 5.12 13.824-11.264-8.704-11.264 8.704 3.584-13.824-10.24-7.68h13.824c-0.512 0 3.072-12.8 3.584-12.8zM232.96 98.304h13.824L235.52 105.984l5.12 12.8-11.264-7.68-11.264 7.68 5.12-12.8-11.264-7.68h13.824s2.56-10.24 3.584-13.312c-31.744 20.992-61.44 46.08-87.552 73.728h30.72l5.12-12.8 3.584 12.8h93.696l4.608-12.8 3.584 12.8h94.208c0.512 0 3.584-11.264 3.584-12.8l3.584 12.8h94.208l4.096-12.8 5.12 12.8h45.568V80.384h-296.96c-2.56 1.536-4.608 3.072-7.168 4.608l3.584 13.312z m195.584 3.584l5.632-12.8 3.584 12.8h13.824L440.32 109.568l3.584 13.824-10.24-8.704-11.264 8.704 3.584-13.824-11.264-7.68h13.824z m-101.376 0l4.096-12.8 5.12 12.8h12.288l-10.24 7.68 3.584 13.824-11.264-8.704-11.264 8.704 5.12-13.824-11.264-7.68h13.824zM218.624 236.544h21.504l-10.752-7.168zM330.752 232.96l-5.12 3.584h10.24z" fill="#004981" p-id="3619"></path><path d="M288.256 51.2l-2.048 1.536 5.12 12.8-11.264-7.68-11.264 7.68 1.536-5.12c-11.264 6.144-22.528 12.8-33.792 19.968h296.96V6.144H432.64C381.44 14.336 332.8 29.696 288.256 51.2z m103.936 14.336l-11.264-7.68-11.264 7.68 5.12-12.8L363.52 45.056h13.824c0.512 0 3.584-12.288 3.584-13.824l3.584 13.824h13.824l-11.264 7.68 5.12 12.8z m90.624-34.304l5.12 13.824H501.76l-11.264 7.68 3.584 12.8-11.264-7.68-10.24 7.68 3.584-12.8-11.264-7.68h13.824l4.096-13.824zM433.664 232.96l-5.12 3.584h9.728zM0 512c0 12.8 0.512 25.088 1.536 37.376h531.968V471.552H1.536C0.512 484.864 0 498.176 0 512z m478.72-11.264l4.096-12.8 5.12 12.8H501.76l-11.264 8.704 3.584 12.8-11.264-7.68-10.24 7.68 3.584-12.8-11.264-8.704h13.824z m-101.376 0l3.584-12.8 3.584 12.8h13.824l-11.264 8.704 5.12 12.8-11.264-7.68-11.264 7.68 5.12-12.8-11.264-8.704h13.824z m-102.4 0l4.608-12.8 3.584 12.8h14.336l-11.264 8.704 5.12 12.8-11.264-7.68-11.264 7.68 3.584-12.8-10.24-8.704h12.8z m-102.912 0l5.632-12.8 3.584 12.8h13.824l-11.264 8.704 3.584 12.8-10.24-7.68-11.264 7.68 3.584-12.8-11.264-8.704h13.824z m-97.28-12.8l5.12 12.8h12.8l-10.24 8.704 3.584 12.8-11.264-7.68-11.264 7.68 5.12-12.8-12.288-8.704h13.824c0.512 0 4.096-12.8 4.608-12.8z" fill="#004981" p-id="3620"></path><path d="M490.496 167.424l3.584 12.8-11.264-7.68-10.24 7.68 3.584-12.8-11.264-8.704h-66.56l-11.264 8.704 5.12 12.8-11.264-7.68-11.264 7.68 5.12-12.8L363.52 158.72H297.472l-11.264 8.704 5.12 12.8-11.264-7.68-11.264 7.68 3.584-12.8-10.24-8.704H195.072l-11.264 8.704 3.584 12.8-10.24-7.68-11.264 7.68 3.584-12.8L158.72 158.72h-17.408c-22.528 24.064-43.008 50.176-60.928 77.824h137.728l5.12-12.288-11.776-9.216h14.336l3.584-12.288 3.584 12.8h13.824L235.52 224.256l5.12 12.288h80.896l3.584-8.704-11.776-7.68h13.824l4.096-13.824 5.12 13.824h12.288l-10.24 7.68 2.56 8.704h82.432l2.56-8.704-10.24-7.68h13.824l4.608-13.824 3.584 13.824h13.824L440.32 227.84l2.56 8.704h90.624V158.72H501.76l-11.264 8.704zM136.704 235.52l-10.24-7.68-10.752 7.68 3.584-12.8-11.264-8.704h13.824s5.632-12.8 5.12-12.8l3.584 12.8h13.824L133.12 222.72l3.584 12.8zM533.504 6.144V2.56H460.8c-9.216 1.024-18.944 2.048-28.16 3.584h100.864zM490.496 397.824l3.584 12.8-11.264-7.68-10.24 7.68 3.584-12.8-6.144-4.096h-76.8l-6.144 4.096 5.12 12.8-11.264-7.68-11.264 7.68 5.12-12.8-6.144-4.096H291.84l-6.144 4.096 5.12 12.8-11.264-7.68-11.264 7.68 3.584-12.8-5.632-4.096H189.952l-6.144 4.096 3.584 12.8-10.24-7.68-11.264 7.68 3.584-12.8-6.144-4.096H88.064l-5.632 4.096 3.584 12.8-11.264-7.68-11.264 7.68 5.12-12.8-6.656-4.096H13.824c-6.144 25.088-10.24 51.2-12.288 77.824h531.968V393.728H496.64l-6.144 4.096zM34.304 463.36l-11.264-8.704-11.264 8.704 3.584-13.824-10.24-7.68h12.8l5.12-12.8 3.584 12.8h13.824l-11.264 7.68 5.12 13.824z m100.864 1.024l-11.264-7.68-11.264 7.68 5.12-12.8-11.264-7.68h13.824l4.096-13.824 3.584 13.824h13.824l-10.24 7.68 3.584 12.8z m102.912 1.536l-11.264-7.68-10.24 7.68 3.584-12.8-10.752-7.68h13.824l3.584-13.824 5.12 13.824H245.76l-11.264 7.68 3.584 12.8z m100.864 5.12l-10.24-8.704L317.44 471.04l3.584-13.824-11.264-7.68h13.824l5.632-12.8 3.584 12.8h13.824l-11.264 7.68 3.584 13.824z m103.936 0l-11.264-8.704-11.264 8.192 3.584-13.824-10.24-7.68h13.824c-0.512 0 4.096-12.288 4.096-12.288l3.584 12.8h13.824l-11.264 7.68 5.12 13.824zM443.904 240.64l-4.096-3.072h-12.8l-4.608 3.072 1.024-3.072h-81.92l1.024 3.072-4.608-3.072h-13.312l-5.12 3.072 1.024-3.072h-240.64c-7.168 11.264-14.336 23.04-20.48 35.328h10.752c0.512 0 4.096-12.288 4.608-12.288l5.12 12.8h12.8l-10.24 7.68 3.584 13.824-11.264-8.704-11.264 8.704 5.12-13.824-10.24-6.656c-7.168 13.312-13.312 27.136-19.456 40.96h494.592V237.568H442.88l1.024 3.072zM187.392 294.912l-10.24-8.704-11.264 8.704 3.584-13.824-11.264-7.68h13.824l5.632-12.8 3.584 12.8h13.824l-11.264 7.68 3.584 13.824z m103.936 0l-11.264-8.704-11.264 8.704 3.584-13.824-10.24-7.68h12.8l4.608-12.8 3.584 12.8h14.336l-11.264 7.68 5.12 13.824z m100.864 0l-11.264-8.704-11.264 8.704 5.12-13.824-11.264-8.192h13.824l3.584-12.288 3.584 12.8h13.824l-11.264 7.68 5.12 13.824z m86.528-21.504l4.096-12.8 5.12 12.8H501.76l-11.264 7.68 3.584 13.824-11.264-8.704-10.24 8.704 3.584-13.824-11.264-7.68h13.824z" fill="#004981" p-id="3621"></path><path d="M324.096 237.568l1.536-1.024h-4.608l-0.512 1.024zM439.808 237.568h3.072v-1.024h-4.608zM218.624 236.544h-0.512v0.512zM427.008 237.568l1.536-1.024h-5.12v1.024zM240.64 237.056v-0.512h-0.512zM337.408 237.568h3.584v-1.024h-5.12zM421.888 356.352l11.264-7.68 11.264 7.68-5.12-12.8 11.264-8.704h-13.824l-3.584-12.8-5.12 12.8h-13.824l11.264 8.704zM118.784 337.408l-3.584 13.824 11.264-8.704 11.264 8.704-5.12-13.824 11.264-7.68h-14.336l-3.584-12.8c-0.512 0-4.096 12.8-3.584 12.8h-13.824l10.24 7.68zM30.208 337.92c-1.024 2.048-1.536 4.608-2.56 6.656l5.12 4.096-2.56-10.752zM216.064 352.768l11.264-8.704 11.264 8.704-3.584-13.824 10.24-7.68h-12.8l-5.12-12.8-3.584 12.288H209.92l11.264 8.192zM318.976 356.352l10.24-7.68 11.264 7.68-3.584-12.8 11.264-8.704h-13.824l-5.12-12.8c0.512 0-3.584 12.8-4.096 12.8h-13.824l11.264 8.704-3.584 12.8zM297.472 390.144h-14.336l-3.584-13.824-4.608 13.824h-12.8l4.608 3.584h25.6zM92.672 390.144h-12.8l-5.12-13.824c-0.512 0-4.096 13.824-4.608 13.824H56.32l5.632 3.584h25.6l5.12-3.584zM40.96 327.168H34.304c-1.024 2.56-2.048 4.608-2.56 7.168L40.96 327.168zM398.336 390.144h-13.824l-3.584-13.824-3.584 13.824H363.52l5.12 3.584h24.576zM501.76 390.144h-13.824l-5.12-13.824-4.096 13.824h-13.824l5.12 3.584H496.64zM195.072 390.144h-13.824l-3.584-13.824-5.632 13.824h-13.824l5.12 3.584h26.624zM229.376 84.48v0zM380.928 145.92c0 1.536-3.072 12.8-3.584 12.8h7.168l-3.584-12.8zM319.488 123.392l11.264-8.704 11.264 8.704-3.584-13.824 10.24-7.68h-12.288l-5.12-12.8-4.096 12.8h-13.824l11.264 7.68zM482.816 145.92l-4.096 12.8h9.216zM422.4 123.392l11.264-8.704 10.24 8.704-3.584-13.824 11.264-7.68h-13.824l-3.584-12.8-5.632 12.8H414.72l11.264 7.68zM380.928 145.92zM177.664 145.92l-5.12 12.8h8.704zM279.552 145.92l-4.608 12.8h8.192zM211.968 98.304l11.264 7.68-5.12 12.8 11.264-7.68 11.264 7.68-5.12-12.8 11.264-7.68h-13.824l-3.584-13.312h-0.512c-0.512 2.56-3.584 13.312-3.584 13.312h-13.312zM283.136 45.056l-3.584-13.824-4.608 13.824h-12.8l10.24 7.68-2.048 7.68c6.144-3.072 11.776-6.144 17.92-9.216l9.216-6.144h-14.336z" fill="#FFFFFF" p-id="3622"></path><path d="M268.8 65.536l11.264-7.68 11.264 7.68-5.12-12.8 2.048-1.536c-6.144 3.072-11.776 6.144-17.92 9.216l-1.536 5.12zM68.608 509.44l-5.12 12.8 11.264-7.68 11.264 7.68-3.584-12.8 10.24-8.704h-12.8l-5.12-12.8c-0.512 0-4.096 12.8-4.608 12.8H56.32l12.288 8.704zM369.664 522.24l11.264-7.68 11.264 7.68-5.12-12.8 11.264-8.704h-13.824l-3.584-12.8-3.584 12.8H363.52l11.264 8.704zM165.888 522.24l11.264-7.68 10.24 7.68-3.584-12.8 11.264-8.704h-13.824l-3.584-12.8-5.632 12.8h-13.824l11.264 8.704zM472.576 522.24l10.24-7.68 11.264 7.68-3.584-12.8 11.264-8.704h-13.824l-5.12-12.8-4.096 12.8h-13.824l11.264 8.704zM268.8 522.24l11.264-7.68 11.264 7.68-5.12-12.8 11.264-8.704h-14.336l-3.584-12.8-4.608 12.8h-12.8l10.24 8.704zM369.664 180.224l11.264-7.68 11.264 7.68-5.12-12.8 11.264-8.704H363.52l11.264 8.704zM229.376 229.376l10.752 7.168h0.512l-5.12-12.288 11.264-8.704h-13.824l-3.584-12.8-3.584 12.288h-14.336l11.776 9.216-5.12 12.288h0.512zM433.664 232.96l4.608 3.584h4.608l-2.56-8.704 11.264-7.68h-13.824l-3.584-13.824-4.608 13.824h-13.824l10.24 7.68-2.56 8.704h5.12zM330.752 232.96l5.12 3.584h5.12l-2.56-8.704 10.24-7.68h-12.288l-5.12-13.824-4.096 13.824h-13.824l11.264 7.68-3.584 8.704h4.608zM268.8 180.224l11.264-7.68 11.264 7.68-5.12-12.8 11.264-8.704h-35.328l10.24 8.704zM472.576 180.224l10.24-7.68 11.264 7.68-3.584-12.8L501.76 158.72h-36.864l11.264 8.704zM130.56 214.016l-3.584-12.8c0.512 0-5.12 12.8-5.12 12.8h-13.824l11.264 8.704-3.584 12.8 10.752-7.68 10.24 7.68-3.584-12.8 11.264-8.704h-13.824zM384.512 45.056l-3.584-13.824c0 1.536-3.072 13.824-3.584 13.824H363.52l11.264 7.68-5.12 12.8 11.264-7.68 11.264 7.68-5.12-12.8 11.264-7.68h-13.824zM165.888 180.224l11.264-7.68 10.24 7.68-3.584-12.8 11.264-8.704H158.72l10.752 8.704zM380.928 31.232zM476.16 52.736l-3.584 12.8 10.24-7.68 11.264 7.68-3.584-12.8L501.76 45.056h-13.824l-5.12-13.824-4.096 13.824h-13.824zM56.32 272.896l2.048 1.536c0-0.512 0.512-1.024 0.512-1.536H56.32zM63.488 294.912l11.264-8.704 11.264 8.704-3.584-13.824 10.24-7.68h-12.8l-5.12-12.8c-0.512 0-4.096 12.288-4.608 12.288h-10.752c0 0.512-0.512 1.024-0.512 1.536l10.24 6.656-5.632 13.824zM319.488 240.64l4.608-3.072h-3.584zM384.512 273.408l-3.584-12.8-3.584 12.288H363.52l11.264 8.192-5.12 13.824 11.264-8.704 11.264 8.704-5.12-13.824 11.264-7.68zM472.576 294.912l10.24-8.704 11.264 8.704-3.584-13.824 11.264-7.68h-13.824l-5.12-12.8-4.096 12.8h-13.824l11.264 7.68zM181.248 273.408l-3.584-12.8-5.632 12.8h-13.824l11.264 7.68-3.584 13.824 11.264-8.704 10.24 8.704-3.584-13.824 11.264-7.68zM283.136 273.408l-3.584-12.8-4.608 12.8h-12.8l10.24 7.68-3.584 13.824 11.264-8.704 11.264 8.704-5.12-13.824 11.264-7.68zM422.4 240.64l4.608-3.072h-3.584zM165.888 410.624l11.264-7.68 10.24 7.68-3.584-12.8 6.144-4.096h-26.624l6.144 4.096zM63.488 410.624l11.264-7.68 11.264 7.68-3.584-12.8 5.632-4.096h-26.112l6.656 4.096zM128 443.904l-3.584-13.824-4.096 13.824h-13.824l11.264 7.68-5.12 12.8 11.264-7.68 11.264 7.68-3.584-12.8 10.24-7.68zM26.624 441.856l-3.584-12.8-5.12 12.8H5.12l10.24 7.68-3.584 13.824 11.264-8.704 11.264 8.704-5.12-13.824 11.264-7.68zM342.016 240.64l-1.024-3.072h-3.584zM369.664 410.624l11.264-7.68 11.264 7.68-5.12-12.8 6.144-4.096H368.64l6.144 4.096zM268.8 410.624l11.264-7.68 11.264 7.68-5.12-12.8 6.144-4.096h-25.6l5.632 4.096zM231.936 445.44l-5.12-13.824-3.584 13.824h-13.824l10.752 7.68-3.584 12.8 10.24-7.68 11.264 7.68-3.584-12.8L245.76 445.44zM443.904 240.64l-1.024-3.072h-3.072zM472.576 410.624l10.24-7.68 11.264 7.68-3.584-12.8 6.144-4.096h-26.624l6.144 4.096zM435.2 449.536l-3.584-12.8s-4.608 12.288-4.096 12.288h-13.824l10.24 7.68-3.584 13.824 11.264-8.192 11.264 8.704-5.12-13.824 11.264-7.68H435.2zM332.8 449.536l-3.584-12.8-5.632 12.8h-13.824l11.264 7.68L317.44 471.04l11.264-8.704 10.24 8.704-3.584-13.824 11.264-7.68z" fill="#FFFFFF" p-id="3623"></path></svg>