<?xml version="1.0" standalone="no"?><!DOCTYPE svg PUBLIC "-//W3C//DTD SVG 1.1//EN" "http://www.w3.org/Graphics/SVG/1.1/DTD/svg11.dtd"><svg t="1587907130648" class="icon" viewBox="0 0 1024 1024" version="1.1" xmlns="http://www.w3.org/2000/svg" p-id="7908" xmlns:xlink="http://www.w3.org/1999/xlink" width="200" height="200"><defs><style type="text/css"></style></defs><path d="M512 0c70.692 0 128 57.308 128 128s-57.308 128-128 128c-70.692 0-128-57.308-128-128S441.308 0 512 0m238.566 708.358l-96-384A48 48 0 0 0 608 288h-22.72c-45.422 20.886-99.18 21.788-146.56 0H416a48 48 0 0 0-46.566 36.358l-96 384C265.87 738.61 288.766 768 320 768h112v208c0 26.51 21.49 48 48 48h64c26.51 0 48-21.49 48-48V768h112c31.182 0 54.142-29.342 46.566-59.642z" p-id="7909"></path></svg>