<?xml version="1.0" standalone="no"?><!DOCTYPE svg PUBLIC "-//W3C//DTD SVG 1.1//EN" "http://www.w3.org/Graphics/SVG/1.1/DTD/svg11.dtd"><svg t="1584796387902" class="icon" viewBox="0 0 1024 1024" version="1.1" xmlns="http://www.w3.org/2000/svg" p-id="2546" xmlns:xlink="http://www.w3.org/1999/xlink" width="200" height="200"><defs><style type="text/css"></style></defs><path d="M822.272 697.344c-11.264-1.024-21.504 8.192-21.504 19.456-2.048 32.768-8.192 90.112-18.432 164.864-2.048 13.312-12.288 24.576-25.6 26.624C658.432 923.648 559.104 931.84 460.8 931.84s-198.656-8.192-296.96-24.576c-14.336-2.048-24.576-13.312-26.624-26.624C120.832 758.784 112.64 634.88 112.64 512c0-28.672 2.048-56.32 5.12-82.944h225.28c39.936 0 71.68-31.744 71.68-71.68V96.256c17.408-3.072 32.768-4.096 46.08-4.096 96.256 0 195.584 8.192 296.96 24.576 13.312 2.048 23.552 12.288 25.6 26.624 9.216 72.704 14.336 125.952 17.408 157.696l1.024 7.168c1.024 11.264 11.264 19.456 22.528 18.432s19.456-11.264 18.432-22.528l-1.024-7.168c-3.072-31.744-8.192-86.016-17.408-159.744-4.096-31.744-29.696-57.344-60.416-61.44C661.504 59.392 559.104 51.2 460.8 51.2c-20.48 0-43.008 3.072-68.608 8.192-5.12 0-10.24 3.072-14.336 7.168L84.992 395.264l-2.048 2.048c-1.024 2.048-2.048 5.12-3.072 8.192C74.752 439.296 71.68 474.112 71.68 512c0 123.904 8.192 249.856 24.576 374.784 4.096 30.72 28.672 55.296 60.416 61.44C257.024 964.608 359.424 972.8 460.8 972.8c100.352 0 202.752-8.192 302.08-24.576 31.744-4.096 56.32-29.696 60.416-61.44 10.24-75.776 16.384-133.12 18.432-166.912 1.024-12.288-8.192-21.504-19.456-22.528zM373.76 132.096v225.28c0 17.408-13.312 30.72-30.72 30.72H146.432l227.328-256z m593.92 385.024c0 11.264-9.216 20.48-20.48 20.48H627.712c25.6 32.768 45.056 56.32 59.392 70.656 8.192 8.192 8.192 20.48 0 28.672-4.096 4.096-9.216 6.144-14.336 6.144s-10.24-2.048-14.336-6.144c-20.48-20.48-49.152-55.296-91.136-110.592-5.12-7.168-5.12-17.408 0-24.576 35.84-49.152 66.56-87.04 91.136-111.616 8.192-8.192 20.48-8.192 28.672 0s8.192 20.48 0 28.672c-18.432 18.432-39.936 45.056-65.536 77.824h325.632c11.264 0 20.48 9.216 20.48 20.48z" p-id="2547"></path></svg>