<?xml version="1.0" standalone="no"?><!DOCTYPE svg PUBLIC "-//W3C//DTD SVG 1.1//EN" "http://www.w3.org/Graphics/SVG/1.1/DTD/svg11.dtd"><svg t="1587907107335" class="icon" viewBox="0 0 1024 1024" version="1.1" xmlns="http://www.w3.org/2000/svg" p-id="7770" xmlns:xlink="http://www.w3.org/1999/xlink" width="200" height="200"><defs><style type="text/css"></style></defs><path d="M512 0c70.692 0 128 57.308 128 128s-57.308 128-128 128-128-57.308-128-128S441.308 0 512 0m96 288h-22.72c-45.422 20.886-99.18 21.788-146.56 0H416c-53.02 0-96 42.98-96 96v272c0 26.51 21.49 48 48 48h32v272c0 26.51 21.49 48 48 48h128c26.51 0 48-21.49 48-48V704h32c26.51 0 48-21.49 48-48V384c0-53.02-42.98-96-96-96z" p-id="7771"></path></svg>