<?xml version="1.0" standalone="no"?><!DOCTYPE svg PUBLIC "-//W3C//DTD SVG 1.1//EN" "http://www.w3.org/Graphics/SVG/1.1/DTD/svg11.dtd"><svg t="1585817114078" class="icon" viewBox="0 0 1024 1024" version="1.1" xmlns="http://www.w3.org/2000/svg" p-id="2257" xmlns:xlink="http://www.w3.org/1999/xlink" width="200" height="200"><defs><style type="text/css"></style></defs><path d="M0 168v476.8c0 92 68 168 152 168h229.6l8 211.2 224.8-212h256.8c84.8 0 152.8-75.2 152.8-168V168c0-92.8-68-168-152-168H152C68.8 0 0 75.2 0 168z m658.4 264c0-44 32-79.2 72-79.2s72.8 35.2 72.8 80c0 44-32 79.2-72 79.2s-72-35.2-72-80z m-220.8 0c0-44 32-79.2 72-79.2s72 35.2 72 80c0 44-32 79.2-72 79.2s-72-35.2-72-80z m-216 0c0-44 32-79.2 72-79.2s72 35.2 72 80c0 44-32 79.2-72 79.2s-72-35.2-72-80z" p-id="2258"></path></svg>