<?xml version="1.0" standalone="no"?><!DOCTYPE svg PUBLIC "-//W3C//DTD SVG 1.1//EN" "http://www.w3.org/Graphics/SVG/1.1/DTD/svg11.dtd"><svg t="1587267282402" class="icon" viewBox="0 0 1024 1024" version="1.1" xmlns="http://www.w3.org/2000/svg" p-id="5886" xmlns:xlink="http://www.w3.org/1999/xlink" width="200" height="200"><defs><style type="text/css"></style></defs><path d="M768 128 192 128C121.6 128 64 185.6 64 256l0 576c0 70.4 57.6 128 128 128l576 0c70.4 0 128-57.6 128-128L896 256C896 185.6 838.4 128 768 128zM832 832c0 38.4-25.6 64-64 64L192 896c-38.4 0-64-25.6-64-64L128 256c0-38.4 25.6-64 64-64l576 0c38.4 0 64 25.6 64 64L832 832z" p-id="5887"></path><path d="M672 512 512 512 512 352C512 332.8 499.2 320 480 320 460.8 320 448 332.8 448 352L448 512 288 512C268.8 512 256 524.8 256 544 256 563.2 268.8 576 288 576L448 576l0 160C448 755.2 460.8 768 480 768 499.2 768 512 755.2 512 736L512 576l160 0C691.2 576 704 563.2 704 544 704 524.8 691.2 512 672 512z" p-id="5888"></path></svg>