<?xml version="1.0" standalone="no"?><!DOCTYPE svg PUBLIC "-//W3C//DTD SVG 1.1//EN" "http://www.w3.org/Graphics/SVG/1.1/DTD/svg11.dtd"><svg t="1584777317099" class="icon" viewBox="0 0 1024 1024" version="1.1" xmlns="http://www.w3.org/2000/svg" p-id="10437" xmlns:xlink="http://www.w3.org/1999/xlink" width="200" height="200"><defs><style type="text/css"></style></defs><path d="M939.456 256.224a31.936 31.936 0 0 0-40.896 19.36l-24.768 69.344a417.792 417.792 0 0 0-133.088-165.92C555.328 41.728 291.296 79.232 152.32 262.656a410.016 410.016 0 0 0-79.84 308.032c15.84 110.304 74.208 207.776 164.352 274.496a421.568 421.568 0 0 0 251.456 82.752c128.032 0 254.56-57.44 336.992-166.272a407.904 407.904 0 0 0 74.208-160.416 32 32 0 1 0-62.496-13.664 345.28 345.28 0 0 1-62.72 135.456c-117.888 155.52-341.92 187.232-499.392 70.72-76.288-56.48-125.664-138.912-139.072-232.16-13.344-92.8 10.656-185.248 67.488-260.288 117.856-155.584 341.792-187.424 499.328-70.848a353.184 353.184 0 0 1 122.976 166.624l-109.984-42.944a32 32 0 0 0-23.264 59.616l161.856 63.2c3.808 1.472 7.744 2.208 11.616 2.208 0.544 0 1.024-0.192 1.568-0.224 1.216 0.128 2.432 0.64 3.648 0.64a32 32 0 0 0 30.112-21.248l57.632-161.184a31.968 31.968 0 0 0-19.328-40.928z" p-id="10438"></path></svg>