<?xml version="1.0" standalone="no"?><!DOCTYPE svg PUBLIC "-//W3C//DTD SVG 1.1//EN" "http://www.w3.org/Graphics/SVG/1.1/DTD/svg11.dtd"><svg t="1586509441988" class="icon" viewBox="0 0 1024 1024" version="1.1" xmlns="http://www.w3.org/2000/svg" p-id="4462" xmlns:xlink="http://www.w3.org/1999/xlink" width="200" height="200"><defs><style type="text/css"></style></defs><path d="M512 64C264.992 64 64 264.96 64 512s200.96 448 448 448c247.008 0 448-200.96 448-448S759.04 64 512 64z m182.752 585.984a32 32 0 1 1-45.312 45.184l-137.6-138.016-138.048 136.576a32 32 0 1 1-44.992-45.504l137.888-136.384-137.376-137.824a32 32 0 1 1 45.312-45.184l137.568 137.984 138.048-136.576a31.968 31.968 0 1 1 44.992 45.504l-137.888 136.384 137.408 137.856z" p-id="4463"></path></svg>