<?xml version="1.0" standalone="no"?><!DOCTYPE svg PUBLIC "-//W3C//DTD SVG 1.1//EN" "http://www.w3.org/Graphics/SVG/1.1/DTD/svg11.dtd"><svg t="1582551644348" class="icon" viewBox="0 0 1024 1024" version="1.1" xmlns="http://www.w3.org/2000/svg" p-id="4217" xmlns:xlink="http://www.w3.org/1999/xlink" width="200" height="200"><defs><style type="text/css"></style></defs><path d="M512 65.984C266.08 65.984 65.984 266.08 65.984 512S266.048 958.016 512 958.016 958.016 757.952 958.016 512c0-245.92-200.064-446.016-446.016-446.016z m215.232 372.448l-256.224 259.008c-0.064 0.064-0.192 0.096-0.256 0.192-0.096 0.064-0.096 0.192-0.192 0.256-2.048 1.984-4.576 3.2-6.944 4.544-1.184 0.672-2.144 1.696-3.392 2.176a32.256 32.256 0 0 1-24.064-0.064c-1.28-0.544-2.304-1.632-3.52-2.304-2.368-1.344-4.832-2.528-6.88-4.544l-0.16-0.256c-0.064-0.096-0.192-0.096-0.256-0.192l-126.016-129.504a32 32 0 1 1 45.888-44.608l103.264 106.112 233.28-235.84a31.968 31.968 0 1 1 45.472 45.024z" p-id="4218"></path></svg>