<?xml version="1.0" standalone="no"?><!DOCTYPE svg PUBLIC "-//W3C//DTD SVG 1.1//EN" "http://www.w3.org/Graphics/SVG/1.1/DTD/svg11.dtd"><svg t="1584796568632" class="icon" viewBox="0 0 1024 1024" version="1.1" xmlns="http://www.w3.org/2000/svg" p-id="3735" xmlns:xlink="http://www.w3.org/1999/xlink" width="200" height="200"><defs><style type="text/css"></style></defs><path d="M954.083556 267.434667L702.549333 63.331556A28.444444 28.444444 0 0 0 684.515556 56.888889h-483.555556C87.921778 56.888889 56.888889 91.648 56.888889 199.964444v615.096889C56.888889 925.895111 92.103111 967.111111 200.96 967.111111h625.777778C941.624889 967.111111 967.111111 918.087111 967.111111 815.061333V289.436444c0-8.519111-6.456889-16.597333-13.027555-22.001777zM725.333333 154.652444v196.053334C725.333333 384 720.071111 384 695.921778 384H331.818667C298.183111 384 298.666667 376.903111 298.666667 350.705778V113.777778h375.68L725.333333 154.652444z m184.888889 660.408889C910.222222 902.229333 898.375111 910.222222 826.737778 910.222222h-625.777778C123.192889 910.222222 113.777778 895.118222 113.777778 815.089778V199.964444C113.777778 124.245333 119.751111 113.777778 200.96 113.777778H270.222222v236.928C270.222222 404.977778 297.102222 412.444444 331.818667 412.444444h364.103111C746.069333 412.444444 753.777778 390.144 753.777778 350.705778V177.464889l156.444444 125.425778v512.170666z" fill="" p-id="3736"></path><path d="M611.555556 298.666667a28.444444 28.444444 0 0 0 28.444444-28.444445v-85.333333a28.444444 28.444444 0 0 0-56.888889 0v85.333333a28.444444 28.444444 0 0 0 28.444445 28.444445zM293.404444 611.555556h113.777778a14.222222 14.222222 0 1 0 0-28.444445h-113.777778a14.222222 14.222222 0 1 0 0 28.444445zM464.071111 611.555556h142.222222c7.879111 0 14.222222-6.357333 14.222223-14.222223s-6.343111-14.222222-14.222223-14.222222h-142.222222a14.222222 14.222222 0 1 0 0 28.444445zM720.071111 583.111111h-56.888889a14.222222 14.222222 0 1 0 0 28.444445h56.888889c7.879111 0 14.222222-6.357333 14.222222-14.222223s-6.343111-14.222222-14.222222-14.222222zM293.404444 682.666667h56.888889a14.222222 14.222222 0 1 0 0-28.444445h-56.888889a14.222222 14.222222 0 1 0 0 28.444445zM407.182222 654.222222a14.222222 14.222222 0 1 0 0 28.444445h113.777778c7.879111 0 14.222222-6.357333 14.222222-14.222223s-6.343111-14.222222-14.222222-14.222222h-113.777778zM720.071111 654.222222h-142.222222a14.222222 14.222222 0 1 0 0 28.444445h142.222222c7.879111 0 14.222222-6.357333 14.222222-14.222223s-6.343111-14.222222-14.222222-14.222222zM435.626667 739.555556h-142.222223a14.222222 14.222222 0 1 0 0 28.444444h142.222223a14.222222 14.222222 0 1 0 0-28.444444zM535.182222 739.555556h-42.666666a14.222222 14.222222 0 1 0 0 28.444444h42.666666c7.879111 0 14.222222-6.357333 14.222222-14.222222s-6.343111-14.222222-14.222222-14.222222z" fill="" p-id="3737"></path></svg>