<?xml version="1.0" standalone="no"?><!DOCTYPE svg PUBLIC "-//W3C//DTD SVG 1.1//EN" "http://www.w3.org/Graphics/SVG/1.1/DTD/svg11.dtd"><svg t="1585661807904" class="icon" viewBox="0 0 1674 1024" version="1.1" xmlns="http://www.w3.org/2000/svg" p-id="13134" xmlns:xlink="http://www.w3.org/1999/xlink" width="326.953125" height="200"><defs><style type="text/css"></style></defs><path d="M1312.294461 1021.755245s1.905432-190.804211-29.547246-226.668095c-21.638398-32.131325-36.594734-61.287043-79.453901-86.449185-0.678647-22.029925-1.983737-55.30973-1.983737-55.30973s-26.023502-24.352986-42.937473-72.563024c-35.550661-14.277689-26.780454-23.465525-30.225893-41.8934 0 0-10.780046-74.781678 13.207514-73.241672 0 0 13.103107-6.525452 9.292244-23.674339-1.278989-28.607581-5.533583-77.522368-3.628151-96.602788 1.905432-19.054319-7.334608-60.765007 32.731666-68.412837 40.040172-7.621728 23.987561-3.810864 37.351686-5.716296 13.338024-1.905432 9.52716-9.52716 34.323877-9.52716l51.498865-8.274272c24.796717 0 40.692717 24.822819 54.030741 26.72825 13.338024 1.905432-10.127501-5.846805 17.201091-0.756952 40.066274 7.64783 34.506589 62.148403 36.412021 81.228824 1.905432 19.054319-1.174581 74.494558-4.985445 91.669547-3.836966 17.148887 17.070582 15.243455 17.070582 15.243455 22.082129-12.502766 11.745813 73.241671 11.745813 73.241671-4.411205 19.393643 15.347863 21.742805-11.27598 38.55237-16.940073 48.23614-62.070098 77.809487-62.070098 77.809487s-3.863067 36.803548-4.04578 45.469348c0.756952 3.445439-21.038057 59.955851 89.372588 76.243379 110.384543 16.261426 129.438862 52.020902 150.242002 71.936581 64.314853 37.325584 77.548469 170.966837 77.54847 170.966838H1312.294461zM1037.28582 455.267722c-22.082129 62.931457-94.227524 101.509928-94.227524 101.509928s-0.130509 48.027325-0.391527 59.35551c0.991869 4.489511-24.013663 82.298998 106.991308 99.473987 144.029772 21.246871 152.591165 67.890801 179.737044 93.888201 27.14588 25.971298 25.71028 212.677525 25.71028 212.677525l-834.265963 1.644414s0.391527-162.248834 21.821111-214.321939c5.142056-14.564808 28.45097-72.64133 172.480742-93.888201 144.055874-21.246871 114.508628-97.072621 119.233056-94.697356-0.86136-28.764192-3.654253-69.091484-3.654253-69.091484s-80.236955-31.765899-102.319085-94.697357c-46.382911-18.610589-44.346971-30.591318-48.836481-54.657184 0 0-9.996992-97.568555 21.325177-95.558716 0 0 33.723535 0 28.738089-22.395351-1.644414-37.325584 4.593918-109.653692 7.07359-134.554816 2.505773-24.875022 20.959751-92.061074 73.215569-102.031965 52.255818-9.944789 31.322169-4.985445 48.732075-7.465117 17.436007-2.479672 12.450562-12.450562 44.790701-12.450562l67.212153-28.16385c32.340139 0 53.091076 62.513828 70.500982 64.9935 17.436007 2.505773 21.586195-7.569524 57.267365-0.939665 52.255818 9.944789 44.999516 81.098315 47.479187 105.973338 2.479672 24.901124 5.246463 97.20313 0.261018 119.59848-4.985445 22.421452 10.571232 19.915679 10.571232 19.915679 37.325584 0 34.297775 95.584818 34.297775 95.584818-5.742398 25.292651-18.976014 28.346563-53.743621 50.298183zM526.838877 580.765211c-16.940073 48.210038-52.725651 72.563024-52.72565 72.563024s-0.522036 33.279804-1.174582 55.30973c-42.859167 25.162142-55.361933 54.317861-77.000331 86.449185-29.834366 84.021718-29.547246 227.503352-29.547246 227.503352H4.489511s-4.150187-125.784609 77.548469-171.802095c20.80314-19.915679 39.883561-55.675155 150.268104-71.936581 93.261757-17.122786 82.89934-72.79794 83.656293-76.243379-0.182713-8.6658 1.670516-45.469348 1.670515-45.469348s-45.156127-29.573348-62.070097-77.809487c-26.649945-16.809564-16.418037-28.137748-20.803141-47.505289 0 0-2.74069-64.288751 25.892993-64.288752 0 0 11.902424 1.905432 8.09156-15.243455-3.810864-17.174989-2.557977-72.615228-0.626443-91.669547 1.905432-19.080421-3.654253-73.580995 36.385919-81.228824 27.328592-5.089852 3.863067 2.662384 17.227193 0.756952 13.338024-1.905432 29.234024-26.728251 54.030741-26.72825l51.498866 8.274272c24.796717 0 16.078713 7.621728 29.416737 9.52716 13.364125 1.905432-2.688486-1.905432 37.351686 5.716296 40.066274 7.64783 30.826234 49.358517 32.731666 68.412837 1.905432 19.080421-0.704749 67.995208-1.983737 96.602788-3.810864 17.148887 15.791593 23.674339 15.791593 23.674339 24.013663-1.540007 13.233616 73.241671 13.233616 73.241672-3.47154 18.427876 8.561393 27.615712-26.963167 41.8934z" fill="" p-id="13135"></path></svg>