<?xml version="1.0" standalone="no"?><!DOCTYPE svg PUBLIC "-//W3C//DTD SVG 1.1//EN" "http://www.w3.org/Graphics/SVG/1.1/DTD/svg11.dtd"><svg t="1587906428890" class="icon" viewBox="0 0 1026 1024" version="1.1" xmlns="http://www.w3.org/2000/svg" p-id="2635" xmlns:xlink="http://www.w3.org/1999/xlink" width="200.390625" height="200"><defs><style type="text/css"></style></defs><path d="M1024.722824 993.159529c-3.794824-161.852235-167.333647-301.116235-392.794353-337.859765l0-82.763294c29.635765-28.491294 50.718118-72.704 64.512-110.411294 19.998118-9.999059 37.586824-32.286118 47.826824-62.223059 14.336-41.441882 8.794353-79.691294-12.408471-98.123294 1.686588-14.336 2.770824-28.973176 0.903529-43.550118-4.758588-39.936 3.915294-62.524235 11.685647-82.401882 6.384941-16.685176 13.793882-35.599059 6.384941-56.922353-26.624-76.679529-104.026353-118.904471-217.931294-118.904471l-15.902118 0.301176c-79.088941 2.831059-102.821647 36.141176-118.723765 67.162353-1.987765 3.734588-4.638118 8.794353-4.638118 9.095529-103.122824 9.216-102.219294 94.509176-101.436235 163.056941l0.180706 22.226824c0 12.348235 0.542118 25.238588 1.566118 38.490353-25.6 18.070588-30.358588 60.536471-10.782118 104.628706 11.143529 24.997647 27.226353 43.911529 45.116235 53.729882 14.637176 40.598588 37.647059 88.545882 71.017412 118.362353l0 77.281882c-228.773647 35.478588-394.782118 175.104-398.576941 338.823529l-0.722824 30.840471 1025.385412 0-0.662588-30.840471zM64.210824 963.764706c23.612235-126.132706 172.212706-230.159059 368.760471-253.229176l26.563765-3.132235 0-160.587294-13.010824-9.035294c-23.672471-16.384-47.646118-57.042824-65.656471-111.495529l-4.999529-16.926118-17.709176-3.072c-3.192471-1.144471-12.528941-9.216-19.877647-25.780706-4.517647-10.119529-6.264471-18.793412-6.746353-24.997647l30.72 8.613647-5.782588-45.116235c-2.529882-19.877647-3.855059-39.213176-3.855059-57.223529l-0.180706-22.889412c-0.903529-80.775529 3.072-98.424471 46.561882-102.339765 32.828235-2.891294 45.296941-27.045647 52.766118-41.502118 9.035294-17.588706 16.865882-32.707765 67.463529-34.575059l13.673412-0.240941c49.935059 0 137.276235 10.179765 160.768 77.221647 0 2.590118-3.132235 10.661647-5.421176 16.564706-8.734118 22.528-21.925647 56.560941-15.299765 111.616 1.445647 11.324235-0.421647 25.539765-2.409412 40.658824l-5.360941 48.489412 26.563765-2.891294c0.481882 6.264471-0.240941 16.203294-4.517647 28.431059-5.842824 17.408-14.576941 26.383059-14.275765 27.346824l-21.684706 0-6.866824 20.600471c-17.046588 51.380706-39.152941 90.172235-60.777412 106.496l-11.926588 9.035294 0 164.201412 26.383059 3.312941c193.415529 24.154353 339.787294 127.879529 363.218824 252.506353l-897.084235 0z" p-id="2636"></path></svg>