<?xml version="1.0" standalone="no"?><!DOCTYPE svg PUBLIC "-//W3C//DTD SVG 1.1//EN" "http://www.w3.org/Graphics/SVG/1.1/DTD/svg11.dtd"><svg t="1585226526174" class="icon" viewBox="0 0 1024 1024" version="1.1" xmlns="http://www.w3.org/2000/svg" p-id="8249" xmlns:xlink="http://www.w3.org/1999/xlink" width="200" height="200"><defs><style type="text/css"></style></defs><path d="M298.666667 885.333333m-85.333334 0a85.333333 85.333333 0 1 0 170.666667 0 85.333333 85.333333 0 1 0-170.666667 0Z" p-id="8250"></path><path d="M896 885.333333m-85.333333 0a85.333333 85.333333 0 1 0 170.666666 0 85.333333 85.333333 0 1 0-170.666666 0Z" p-id="8251"></path><path d="M298.666667 330.666667m42.666666 0l213.333334 0q42.666667 0 42.666666 42.666666l0 213.333334q0 42.666667-42.666666 42.666666l-213.333334 0q-42.666667 0-42.666666-42.666666l0-213.333334q0-42.666667 42.666666-42.666666Z" p-id="8252"></path><path d="M661.333333 330.666667m42.666667 0l213.333333 0q42.666667 0 42.666667 42.666666l0 213.333334q0 42.666667-42.666667 42.666666l-213.333333 0q-42.666667 0-42.666667-42.666666l0-213.333334q0-42.666667 42.666667-42.666666Z" p-id="8253"></path><path d="M469.333333 53.333333m42.666667 0l256 0q42.666667 0 42.666667 42.666667l0 128q0 42.666667-42.666667 42.666667l-256 0q-42.666667 0-42.666667-42.666667l0-128q0-42.666667 42.666667-42.666667Z" p-id="8254"></path><path d="M981.333333 693.333333H234.666667v-512c0-0.597333-0.341333-1.152-0.384-1.749333s0.384-1.152 0.384-1.792A60.544 60.544 0 0 0 174.208 117.333333H42.666667a42.666667 42.666667 0 0 0 0 85.333334h106.666666v490.666666a85.333333 85.333333 0 0 0 85.333334 85.333334H981.333333a42.666667 42.666667 0 0 0 0-85.333334z" p-id="8255"></path></svg>