<?xml version="1.0" standalone="no"?><!DOCTYPE svg PUBLIC "-//W3C//DTD SVG 1.1//EN" "http://www.w3.org/Graphics/SVG/1.1/DTD/svg11.dtd"><svg t="1586967146005" class="icon" viewBox="0 0 1024 1024" version="1.1" xmlns="http://www.w3.org/2000/svg" p-id="3466" xmlns:xlink="http://www.w3.org/1999/xlink" width="200" height="200"><defs><style type="text/css"></style></defs><path d="M1024 512C1024 229.376 794.624 0 512 0S0 229.376 0 512s229.376 512 512 512 512-229.376 512-512zM501.76 199.68l40.96 10.24 30.72-30.72-10.24 40.96 40.96 20.48-40.96 10.24v40.96l-20.48-30.72-51.2 10.24 30.72-40.96-20.48-30.72z m-122.88 327.68L286.72 455.68l-92.16 71.68 30.72-112.64-92.16-71.68h122.88l30.72-112.64 40.96 112.64h112.64L348.16 414.72l30.72 112.64z m184.32 92.16v40.96l-20.48-30.72-51.2 10.24 30.72-40.96-20.48-30.72 40.96 10.24 30.72-30.72-10.24 40.96 40.96 20.48-40.96 10.24z m122.88-71.68l-30.72-20.48-40.96 20.48 20.48-40.96-40.96-20.48h40.96l20.48-40.96 10.24 40.96 40.96-10.24-30.72 30.72 10.24 40.96z m-20.48-184.32l-20.48 40.96v-40.96l-51.2-10.24 40.96-20.48v-40.96l30.72 30.72 40.96-20.48-30.72 40.96 40.96 30.72-51.2-10.24z" fill="#E50012" p-id="3467"></path><path d="M327.68 343.04l-40.96-112.64-30.72 112.64H133.12l92.16 71.68-30.72 112.64 92.16-71.68 92.16 71.68-30.72-112.64 92.16-71.68zM542.72 261.12l20.48 30.72v-40.96l40.96-10.24-40.96-20.48 10.24-40.96-30.72 30.72-40.96-10.24 20.48 30.72-30.72 40.96zM706.56 302.08l-40.96 20.48-30.72-30.72v40.96l-40.96 20.48 51.2 10.24v40.96l20.48-40.96 51.2 10.24-40.96-30.72zM665.6 486.4l-10.24-40.96-20.48 40.96h-40.96l40.96 20.48-20.48 40.96 40.96-20.48 30.72 20.48-10.24-40.96 30.72-30.72zM573.44 547.84l-30.72 30.72-40.96-10.24 20.48 30.72-30.72 40.96 51.2-10.24 20.48 30.72v-40.96l40.96-10.24-40.96-20.48z" fill="#FFF000" p-id="3468"></path></svg>